<svg width="75" height="75" viewBox="0 0 75 75" fill="none" xmlns="http://www.w3.org/2000/svg">
<path d="M62.0226 34.2661H68.2248C68.2248 18.2841 56.2142 6.23071 40.2837 6.23071V12.4615C52.8805 12.4615 62.0226 21.6301 62.0226 34.2661Z" fill="black"/>
<path d="M40.3148 24.9231C46.8365 24.9231 49.6182 27.7176 49.6182 34.2692H55.8205C55.8205 24.2221 50.316 18.6923 40.3148 18.6923V24.9231ZM50.9269 41.8801C50.331 41.336 49.548 41.0458 48.7431 41.0708C47.9382 41.0958 47.1745 41.4341 46.6132 42.0141L39.1922 49.681C37.406 49.3384 33.8149 48.2137 30.1184 44.5095C26.4218 40.7929 25.3023 37.1759 24.9705 35.3939L32.5961 27.9357C33.1742 27.3722 33.5114 26.6048 33.5363 25.796C33.5612 24.9872 33.2718 24.2004 32.7295 23.6022L21.2708 10.9443C20.7283 10.3442 19.9742 9.98015 19.1688 9.92954C18.3633 9.87893 17.57 10.1457 16.9572 10.6733L10.2277 16.471C9.69159 17.0116 9.37158 17.7311 9.32842 18.4929C9.2819 19.2718 8.39498 37.7211 22.6353 52.0332C35.0584 64.5103 50.6199 65.4231 54.9056 65.4231C55.5321 65.4231 55.9166 65.4044 56.0189 65.3982C56.7772 65.3555 57.493 65.0326 58.0285 64.4916L63.7966 57.7281C64.3221 57.1129 64.5882 56.3161 64.5384 55.507C64.4886 54.6978 64.1268 53.9401 63.5299 53.3946L50.9269 41.8801Z" fill="black"/>
</svg>
