<svg width="56" height="77" viewBox="0 0 56 77" fill="none" xmlns="http://www.w3.org/2000/svg">
<path d="M27.7036 0.521118C20.4128 0.530401 13.4231 3.66036 8.2677 9.22441C3.11232 14.7885 0.212244 22.3323 0.203643 30.201C0.19491 36.6314 2.14109 42.8872 5.74364 48.009C5.74364 48.009 6.49364 49.0747 6.61614 49.2285L27.7036 76.07L48.8011 49.215C48.9111 49.072 49.6636 48.009 49.6636 48.009L49.6661 48.0009C53.2668 42.8814 55.2121 36.6284 55.2036 30.201C55.195 22.3323 52.2949 14.7885 47.1395 9.22441C41.9841 3.66036 34.9944 0.530401 27.7036 0.521118ZM27.7036 40.9937C25.7258 40.9937 23.7924 40.3607 22.1479 39.1748C20.5034 37.9889 19.2217 36.3033 18.4648 34.3312C17.708 32.3591 17.5099 30.189 17.8958 28.0955C18.2816 26.0019 19.234 24.0788 20.6326 22.5694C22.0311 21.06 23.8129 20.0321 25.7527 19.6157C27.6925 19.1993 29.7032 19.413 31.5304 20.2299C33.3577 21.0467 34.9195 22.4301 36.0183 24.2049C37.1171 25.9798 37.7036 28.0664 37.7036 30.201C37.7003 33.0623 36.6457 35.8054 34.771 37.8287C32.8964 39.8519 30.3548 40.9901 27.7036 40.9937Z" fill="black"/>
</svg>
